<svg xmlns="http://www.w3.org/2000/svg" width="60" height="41.226" viewBox="0 0 60 41.226"><defs><style>.a,.c,.d{fill:#707070;}.b{fill:none;stroke-width:1.3px;}.b,.c{stroke:#707070;stroke-linecap:round;}.c{stroke-linejoin:round;}.d{font-size:12px;font-family:SegoeUI-Semibold, Segoe UI;font-weight:600;letter-spacing:0.03em;}</style></defs><g transform="translate(18.02)">
<path class="a" d="M14.215,34.445A10.9,10.9,0,0,0,3.5,43.874H5.063a9.34,9.34,0,0,1,9.152-7.857,9.43,9.43,0,0,1,0,18.857,9.2,9.2,0,0,1-7.327-3.629L5.8,52.281a10.414,10.414,0,0,0,8.417,4.164,11,11,0,0,0,0-22Z" transform="translate(-1.056 -34.445)"/>
<g transform="translate(12.114 6.918)">
<line class="b" y2="5.057"/><line class="b" x1="4" y1="3" transform="translate(0 5.057)"/></g>
<path class="c" d="M3.185,0,6.369,3.245H0Z" transform="matrix(-1, 0.017, -0.017, -1, 6.425, 12.704)"/></g><text class="d" transform="translate(0 38.226)"><tspan x="0" y="0">Ad history</tspan></text></svg>