<svg xmlns="http://www.w3.org/2000/svg" width="35" height="41.126" viewBox="0 0 35 41.126"><defs><style>.a,.b{fill:#4852ff;}.b{font-size:12px;font-family:SegoeUI-Semibold, Segoe UI;font-weight:600;letter-spacing:0.03em;}</style></defs><path class="a" d="M23.855,9.568l0,0L14.062.593a2.354,2.354,0,0,0-3.125,0L1.151,9.562l-.01.009a1.91,1.91,0,0,0,0,2.86,2.3,2.3,0,0,0,1.466.591c.023,0,.045,0,.068,0h.39v6.6A2.488,2.488,0,0,0,5.656,22H9.487a.676.676,0,0,0,.7-.645V16.177A1.135,1.135,0,0,1,11.37,15.1H13.63a1.135,1.135,0,0,1,1.18,1.081v5.178a.676.676,0,0,0,.7.645h3.831a2.488,2.488,0,0,0,2.586-2.37v-6.6h.362a2.3,2.3,0,0,0,1.563-.594,1.911,1.911,0,0,0,0-2.863Zm-1,1.952a.837.837,0,0,1-.568.216H21.226a.676.676,0,0,0-.7.645v7.249a1.135,1.135,0,0,1-1.18,1.081H16.216V16.177a2.488,2.488,0,0,0-2.586-2.371H11.37a2.488,2.488,0,0,0-2.586,2.371V20.71H5.656a1.135,1.135,0,0,1-1.18-1.081V12.38a.676.676,0,0,0-.7-.645H2.694a.835.835,0,0,1-.553-.215.7.7,0,0,1,0-1.041h0L11.932,1.5a.855.855,0,0,1,1.136,0l9.789,8.972,0,0a.7.7,0,0,1,0,1.04Zm0,0" transform="translate(4.052 0.001)"/><text class="b" transform="translate(0 38.126)"><tspan x="0" y="0">Home</tspan></text></svg>