<svg xmlns="http://www.w3.org/2000/svg" width="25.842" height="22" viewBox="0 0 25.842 22"><defs><style>.a{fill:#707070;}</style></defs><path class="a" d="M22.674,13.625v2.75h5.168v-2.75Zm-2.584,9.089c1.24.976,2.856,2.269,4.135,3.286.517-.729,1.034-1.471,1.551-2.2-1.279-1.017-2.894-2.31-4.135-3.3C21.123,21.243,20.606,21.985,20.089,22.714ZM25.775,6.2c-.517-.729-1.034-1.471-1.551-2.2-1.279,1.017-2.894,2.31-4.135,3.3.517.729,1.034,1.471,1.551,2.2C22.88,8.51,24.5,7.231,25.775,6.2ZM4.584,10.875A2.679,2.679,0,0,0,2,13.625v2.75a2.679,2.679,0,0,0,2.584,2.75H5.876v5.5H8.461v-5.5H9.753l6.461,4.125V6.75L9.753,10.875ZM19.443,15a6.339,6.339,0,0,0-1.938-4.606v9.2A6.284,6.284,0,0,0,19.443,15Z" transform="translate(-2 -4)"/></svg>