<svg xmlns="http://www.w3.org/2000/svg" width="49" height="47" viewBox="0 0 49 47"><defs><style>.a{fill:#6f6f6f;stroke:#707070;opacity:0;}.b{fill:#fff;}.c{stroke:none;}.d{fill:none;}</style></defs><g transform="translate(10.549 5.367) rotate(8)"><g class="a" transform="translate(-11.193 -3.847) rotate(-8)"><ellipse class="c" cx="24.5" cy="23.5" rx="24.5" ry="23.5"/><ellipse class="d" cx="24.5" cy="23.5" rx="24" ry="23"/></g><path class="b" d="M30.189,11.559,17.881.832a3.617,3.617,0,0,0-4.616,0,2.576,2.576,0,0,0-.4,3.6l-.017.075A19.214,19.214,0,0,1,6.6,14.684L.957,19.6a2.593,2.593,0,0,0,0,4.023l3.077,2.682a3.611,3.611,0,0,0,4.616,0l.769-.67L14.8,30.331a3.611,3.611,0,0,0,4.616,0,2.6,2.6,0,0,0,0-4.023L17.111,24.3l.769-.67a2.593,2.593,0,0,0,0-4.023l-.523-.456a24.642,24.642,0,0,1,8.612-3.205l.087-.015a3.636,3.636,0,0,0,4.133-.346h0A2.6,2.6,0,0,0,30.189,11.559ZM7.111,24.968a1.2,1.2,0,0,1-1.539,0L2.5,22.286a.864.864,0,0,1,0-1.341L7.88,16.252,12.5,20.275Zm10.77,2.682a.866.866,0,0,1,0,1.341,1.206,1.206,0,0,1-1.539,0L10.957,24.3,12.5,22.956Zm-3.846-6.034c.327-.285.817-.722,1.589-1.3l.719.626a.864.864,0,0,1,0,1.341l-.769.67Zm.046-2.641-4.708-4.1a20.936,20.936,0,0,0,5.3-8.793l9.5,8.28A26.328,26.328,0,0,0,14.081,18.974Zm14.57-4.733a1.2,1.2,0,0,1-1.539,0L14.8,3.514a.864.864,0,0,1,0-1.341,1.2,1.2,0,0,1,1.539,0L28.651,12.9A.866.866,0,0,1,28.651,14.241Z" transform="translate(0 1.47)"/><path class="b" d="M3.6.338a1.155,1.155,0,0,0-1.633,0L.338,1.971A1.155,1.155,0,0,0,1.971,3.6L3.6,1.971A1.155,1.155,0,0,0,3.6.338Z" transform="translate(5.229 20.222)"/><path class="b" d="M1.155,0A1.155,1.155,0,0,0,0,1.155V3.464a1.155,1.155,0,0,0,2.309,0V1.155A1.155,1.155,0,0,0,1.155,0Z" transform="translate(21.761 0)"/><path class="b" d="M3.464,0H1.155a1.155,1.155,0,1,0,0,2.309H3.464A1.155,1.155,0,1,0,3.464,0Z" transform="translate(28.143 7.548)"/><path class="b" d="M4.281.338a1.155,1.155,0,0,0-1.633,0L.338,2.648A1.155,1.155,0,0,0,1.971,4.281L4.281,1.971A1.155,1.155,0,0,0,4.281.338Z" transform="translate(25.834 2.309)"/></g></svg>